<svg xmlns="http://www.w3.org/2000/svg" viewBox="0 0 1600 900" preserveAspectRatio="xMidYMax slice"><rect width="1600" height="900" fill="#1a0d0d"/><path d="M-20 920 L-20 620 L46 319 L136 511 L192 577 L298 372 L377 563 L499 468 L615 360 L714 530 L796 543 L869 323 L965 425 L1032 420 L1130 343 L1239 511 L1359 575 L1483 417 L1574 449 L1630 571 L1736 373 L1620 620 L1620 920 Z" fill="#000" transform="translate(10 10)"/><path d="M-20 920 L-20 620 L46 319 L136 511 L192 577 L298 372 L377 563 L499 468 L615 360 L714 530 L796 543 L869 323 L965 425 L1032 420 L1130 343 L1239 511 L1359 575 L1483 417 L1574 449 L1630 571 L1736 373 L1620 620 L1620 920 Z" fill="#4a1f1f" stroke="#281111" stroke-width="6" stroke-linejoin="round"/><path d="M-20 920 L-20 760 L39 727 L132 652 L201 503 L262 630 L356 593 L413 582 L463 607 L532 663 L627 704 L699 630 L780 625 L874 675 L965 659 L1027 662 L1087 721 L1171 624 L1247 588 L1307 671 L1372 668 L1423 638 L1507 696 L1604 618 L1702 573 L1620 760 L1620 920 Z" fill="#000" transform="translate(10 10)"/><path d="M-20 920 L-20 760 L39 727 L132 652 L201 503 L262 630 L356 593 L413 582 L463 607 L532 663 L627 704 L699 630 L780 625 L874 675 L965 659 L1027 662 L1087 721 L1171 624 L1247 588 L1307 671 L1372 668 L1423 638 L1507 696 L1604 618 L1702 573 L1620 760 L1620 920 Z" fill="#7a2b2b" stroke="#431717" stroke-width="6" stroke-linejoin="round"/><path d="M690 900 L720 558 L754 900 Z" fill="#000" transform="translate(10 10)"/><path d="M690 900 L720 558 L754 900 Z" fill="#FFB23D" stroke="#8c6121" stroke-width="5" stroke-linejoin="round"/><path d="M402 900 L432 526 L466 900 Z" fill="#000" transform="translate(10 10)"/><path d="M402 900 L432 526 L466 900 Z" fill="#FFB23D" stroke="#8c6121" stroke-width="5" stroke-linejoin="round"/><path d="M1402 900 L1432 549 L1466 900 Z" fill="#000" transform="translate(10 10)"/><path d="M1402 900 L1432 549 L1466 900 Z" fill="#FFB23D" stroke="#8c6121" stroke-width="5" stroke-linejoin="round"/><path d="M40 900 L70 444 L104 900 Z" fill="#000" transform="translate(10 10)"/><path d="M40 900 L70 444 L104 900 Z" fill="#FFB23D" stroke="#8c6121" stroke-width="5" stroke-linejoin="round"/><path d="M704 900 L734 538 L768 900 Z" fill="#000" transform="translate(10 10)"/><path d="M704 900 L734 538 L768 900 Z" fill="#FFB23D" stroke="#8c6121" stroke-width="5" stroke-linejoin="round"/><path d="M1468 900 L1498 465 L1532 900 Z" fill="#000" transform="translate(10 10)"/><path d="M1468 900 L1498 465 L1532 900 Z" fill="#FFB23D" stroke="#8c6121" stroke-width="5" stroke-linejoin="round"/><path d="M147 900 L177 495 L211 900 Z" fill="#000" transform="translate(10 10)"/><path d="M147 900 L177 495 L211 900 Z" fill="#FFB23D" stroke="#8c6121" stroke-width="5" stroke-linejoin="round"/><path d="M1358 900 L1388 562 L1422 900 Z" fill="#000" transform="translate(10 10)"/><path d="M1358 900 L1388 562 L1422 900 Z" fill="#FFB23D" stroke="#8c6121" stroke-width="5" stroke-linejoin="round"/><path d="M322 900 L352 469 L386 900 Z" fill="#000" transform="translate(10 10)"/><path d="M322 900 L352 469 L386 900 Z" fill="#FFB23D" stroke="#8c6121" stroke-width="5" stroke-linejoin="round"/></svg>