<svg xmlns="http://www.w3.org/2000/svg" viewBox="0 0 1600 900" preserveAspectRatio="xMidYMax slice"><rect width="1600" height="900" fill="#120826"/><path d="M-20 920 L-20 560 L192 464 L400 545 L658 510 L827 496 L976 441 L1186 543 L1352 482 L1498 530 L1767 524 L1620 560 L1620 920 Z" fill="#000" transform="translate(10 10)"/><path d="M-20 920 L-20 560 L192 464 L400 545 L658 510 L827 496 L976 441 L1186 543 L1352 482 L1498 530 L1767 524 L1620 560 L1620 920 Z" fill="#2b1a55" stroke="#170e2e" stroke-width="6" stroke-linejoin="round"/><rect x="-20" y="600" width="1640" height="320" fill="#1a0b2e" stroke="#0e0619" stroke-width="6"/><path d="M584 600 L-1120 920" stroke="#FF4FA3" stroke-width="6"/><path d="M602 600 L-960 920" stroke="#FF4FA3" stroke-width="6"/><path d="M620 600 L-800 920" stroke="#FF4FA3" stroke-width="6"/><path d="M638 600 L-640 920" stroke="#FF4FA3" stroke-width="6"/><path d="M656 600 L-480 920" stroke="#FF4FA3" stroke-width="6"/><path d="M674 600 L-320 920" stroke="#FF4FA3" stroke-width="6"/><path d="M692 600 L-160 920" stroke="#FF4FA3" stroke-width="6"/><path d="M710 600 L0 920" stroke="#FF4FA3" stroke-width="6"/><path d="M728 600 L160 920" stroke="#FF4FA3" stroke-width="6"/><path d="M746 600 L320 920" stroke="#FF4FA3" stroke-width="6"/><path d="M764 600 L480 920" stroke="#FF4FA3" stroke-width="6"/><path d="M782 600 L640 920" stroke="#FF4FA3" stroke-width="6"/><path d="M800 600 L800 920" stroke="#FF4FA3" stroke-width="6"/><path d="M818 600 L960 920" stroke="#FF4FA3" stroke-width="6"/><path d="M836 600 L1120 920" stroke="#FF4FA3" stroke-width="6"/><path d="M854 600 L1280 920" stroke="#FF4FA3" stroke-width="6"/><path d="M872 600 L1440 920" stroke="#FF4FA3" stroke-width="6"/><path d="M890 600 L1600 920" stroke="#FF4FA3" stroke-width="6"/><path d="M908 600 L1760 920" stroke="#FF4FA3" stroke-width="6"/><path d="M926 600 L1920 920" stroke="#FF4FA3" stroke-width="6"/><path d="M944 600 L2080 920" stroke="#FF4FA3" stroke-width="6"/><path d="M962 600 L2240 920" stroke="#FF4FA3" stroke-width="6"/><path d="M980 600 L2400 920" stroke="#FF4FA3" stroke-width="6"/><path d="M998 600 L2560 920" stroke="#FF4FA3" stroke-width="6"/><path d="M1016 600 L2720 920" stroke="#FF4FA3" stroke-width="6"/><path d="M-20 610 L1620 610" stroke="#FF4FA3" stroke-width="5"/><path d="M-20 620 L1620 620" stroke="#FF4FA3" stroke-width="5"/><path d="M-20 634 L1620 634" stroke="#FF4FA3" stroke-width="5"/><path d="M-20 652 L1620 652" stroke="#FF4FA3" stroke-width="5"/><path d="M-20 676 L1620 676" stroke="#FF4FA3" stroke-width="5"/><path d="M-20 710 L1620 710" stroke="#FF4FA3" stroke-width="5"/><path d="M-20 754 L1620 754" stroke="#FF4FA3" stroke-width="5"/><path d="M-20 815 L1620 815" stroke="#FF4FA3" stroke-width="5"/><path d="M-20 897 L1620 897" stroke="#FF4FA3" stroke-width="5"/></svg>