<svg xmlns="http://www.w3.org/2000/svg" viewBox="0 0 1600 900" preserveAspectRatio="xMidYMax slice"><rect width="1600" height="900" fill="#020a05"/><path d="M-20 920 L-20 640 L108 535 L298 521 L435 578 L601 589 L747 584 L903 594 L1056 588 L1148 521 L1248 586 L1349 576 L1509 520 L1697 547 L1620 640 L1620 920 Z" fill="#000" transform="translate(10 10)"/><path d="M-20 920 L-20 640 L108 535 L298 521 L435 578 L601 589 L747 584 L903 594 L1056 588 L1148 521 L1248 586 L1349 576 L1509 520 L1697 547 L1620 640 L1620 920 Z" fill="#0a3d1e" stroke="#052110" stroke-width="6" stroke-linejoin="round"/><circle cx="1040" cy="762" r="113" fill="#000"/><circle cx="1030" cy="752" r="113" fill="#145c2e" stroke="#0b3219" stroke-width="6"/><circle cx="305" cy="642" r="90" fill="#000"/><circle cx="295" cy="632" r="90" fill="#FF4FA3" stroke="#8c2b59" stroke-width="6"/><circle cx="1480" cy="737" r="58" fill="#000"/><circle cx="1470" cy="727" r="58" fill="#FF4FA3" stroke="#8c2b59" stroke-width="6"/><circle cx="1209" cy="773" r="80" fill="#000"/><circle cx="1199" cy="763" r="80" fill="#145c2e" stroke="#0b3219" stroke-width="6"/><circle cx="1023" cy="750" r="66" fill="#000"/><circle cx="1013" cy="740" r="66" fill="#FF4FA3" stroke="#8c2b59" stroke-width="6"/><circle cx="605" cy="682" r="89" fill="#000"/><circle cx="595" cy="672" r="89" fill="#FF4FA3" stroke="#8c2b59" stroke-width="6"/><circle cx="1022" cy="813" r="70" fill="#000"/><circle cx="1012" cy="803" r="70" fill="#145c2e" stroke="#0b3219" stroke-width="6"/><circle cx="165" cy="854" r="90" fill="#000"/><circle cx="155" cy="844" r="90" fill="#145c2e" stroke="#0b3219" stroke-width="6"/><circle cx="694" cy="769" r="76" fill="#000"/><circle cx="684" cy="759" r="76" fill="#145c2e" stroke="#0b3219" stroke-width="6"/><circle cx="940" cy="730" r="100" fill="#000"/><circle cx="930" cy="720" r="100" fill="#145c2e" stroke="#0b3219" stroke-width="6"/><circle cx="981" cy="798" r="90" fill="#000"/><circle cx="971" cy="788" r="90" fill="#145c2e" stroke="#0b3219" stroke-width="6"/><path d="M453 700 C453 733 447 746 447 766 C447 779 460 779 460 766 C460 746 466 733 466 700 Z" fill="#145c2e" stroke="#0b3219" stroke-width="4"/><path d="M676 700 C676 734 668 748 668 768 C668 783 684 783 684 768 C684 748 691 734 691 700 Z" fill="#145c2e" stroke="#0b3219" stroke-width="4"/><path d="M1296 700 C1296 717 1289 724 1289 735 C1289 749 1303 749 1303 735 C1303 724 1310 717 1310 700 Z" fill="#145c2e" stroke="#0b3219" stroke-width="4"/><path d="M301 700 C301 755 295 776 295 809 C295 822 307 822 307 809 C307 776 314 755 314 700 Z" fill="#145c2e" stroke="#0b3219" stroke-width="4"/><path d="M610 700 C610 748 600 767 600 796 C600 815 619 815 619 796 C619 767 628 748 628 700 Z" fill="#145c2e" stroke="#0b3219" stroke-width="4"/></svg>