<svg viewBox="0 0 64 64" xmlns="http://www.w3.org/2000/svg" role="img" aria-label="Type a Word">
  <rect x="0" y="0" width="64" height="64" rx="14" fill="#FF4FA3"/>
  <path d="M35 24 C 40 19, 43 16, 45.5 13" fill="none" stroke="#141414" stroke-width="4" stroke-linecap="round"/>
  <path d="M45.5 4 L48.4 10.6 L55.5 11.6 L50 16 L51.6 23 L45.5 18.8 L39.4 23 L41 16 L35.5 11.6 L42.6 10.6 Z" fill="#FFE23D" stroke="#141414" stroke-width="1.6" stroke-linejoin="round"/>
  <circle cx="45.5" cy="13" r="3" fill="#FF6B3D"/>
  <circle cx="57" cy="6" r="1.6" fill="#FFE23D"/>
  <circle cx="35" cy="5" r="1.3" fill="#FFE23D"/>
  <rect x="30.5" y="20.5" width="8" height="6.5" rx="2.5" transform="rotate(-30 34.5 23.7)" fill="#141414"/>
  <circle cx="27" cy="41" r="17" fill="#141414"/>
  <path d="M15.5 34 a 9.5 9.5 0 0 1 7.5 -7.5" fill="none" stroke="#ffffff" stroke-width="2.6" stroke-linecap="round" opacity="0.9"/>
  <path d="M19 37.5 L25.5 40.2 L25 44.2 L19 43.2 Z" fill="#ffffff"/>
  <path d="M35 37.5 L28.5 40.2 L29 44.2 L35 43.2 Z" fill="#ffffff"/>
  <circle cx="22.3" cy="42" r="1.7" fill="#141414"/>
  <circle cx="31.7" cy="42" r="1.7" fill="#141414"/>
</svg>
